<svg version="1.2" xmlns="http://www.w3.org/2000/svg" viewBox="0 0 206 275" width="207" height="275">
	<title>logo (2)-svg</title>
	<style>
		.s0 { fill: #ffe600 } 
	</style>
	<path id="Layer" class="s0" d="m14.4 16.1c9.6 0 19.2 0 28.9 0q0 0.7 0 1.4 0 67.7 0 135.4c0 3 0.3 6.1 1.4 9 1.5 4.3 4.6 6.9 9.2 7.9 3 0.5 6 0.5 9-0.1 5.2-1.2 8.2-4.5 9.3-9.3 0.6-2.4 0.9-4.9 0.9-7.3 0-45.2 0-90.3 0.1-135.4q0-0.8 0-1.5c9.1 0 18.1 0 27.2 0-7.5 12.5-15 24.9-22.6 37.4 6.6 0 13.1 0 19.7 0 0 0.4 0 0.8 0 1.1q0 57.8 0 115.7c0 0.5-0.1 1-0.3 1.4-4.8 12.8-14.3 20.3-27.9 23-9 1.7-17.9 1.6-26.8-0.7-12.3-3.3-20.6-10.9-24.9-22.5-2-5.4-3.1-11-3.1-16.6-0.2-21.2-0.2-42.4-0.2-63.6q0-36.9 0-73.8 0.1-0.7 0.1-1.5z"/>
	<path id="Layer" fill-rule="evenodd" class="s0" d="m125.7 53.7c6.4 0 12.7 0 19.1 0-0.2-0.4-0.3-0.7-0.5-0.9q-11.6-17.8-23.2-35.5c-0.3-0.5-0.6-0.7-1.3-0.7-6.2 0-12.4 0-18.6 0-0.1 0-0.3 0-0.6-0.1 3.3-5.5 6.5-10.9 9.9-16.5 0.3 0.5 0.5 0.8 0.7 1.1q4.2 7.1 8.5 14.2c0.3 0.6 0.6 0.8 1.4 0.8 14.5 0 28.9-0.1 43.3 0 7.2 0.1 14.1 1.2 20.7 4.2 8.4 3.8 14.1 10.1 17.3 18.5 2.4 6.1 3.4 12.4 3.5 18.9q0.2 13.7 0 27.4c-0.1 6.4-1 12.6-3.3 18.6-4.4 11.7-13.1 18.8-25.5 21.7-4.3 1-8.8 1.5-13.3 1.5q-6.6 0-13.3 0c-0.4 0-0.7 0-1.2 0q0 0.7 0 1.3 0 32 0 64c0 1.4 0 1.4-1.5 1.4q-10.4 0-20.7 0c-1.4 0-1.4 0-1.4-1.3q0-68.7 0-137.4c0-0.3 0-0.7 0-1.2zm23.6-12.2c0 20.1 0 40 0 60 1.9 0 3.7 0 5.5 0 3.7-0.1 7.5 0 11.2-0.3 3.6-0.2 6.6-1.8 8.5-4.9 1.7-2.8 2.3-5.8 2.4-9q0.1-15 0-30.1c0-2-0.2-4-0.6-6-0.8-3.8-2.6-7.1-6.6-8.5-1.7-0.7-3.6-1-5.4-1.1-3.2-0.2-6.4-0.1-9.6-0.1q-2.6 0-5.4 0z"/>
	<path id="Layer" class="s0" d="m80.1 237.2c-1.7 0-3.3 0-5 0 0-1.2 0-2.3 0-3.6 0.3 0 0.6-0.1 0.9-0.1 3.6 0 7.3 0.1 11 0 0.8 0 1.1 0.3 1.1 1.1-0.1 2.8 0 5.6 0 8.4 0 0.4 0 0.7-0.1 1.1-1.3 0-2.7 0.1-4-0.1-0.3 0-0.6-0.8-0.9-1.1-1.6 0.5-3.2 1.2-4.9 1.4-4.7 0.8-9.2 0.2-13.1-2.7-5.5-4.1-5.3-11.4 0.5-15.2 3.4-2.3 7.1-2.9 11.2-2.6 2.3 0.2 4.5 0.7 6.5 1.8 2.1 1.3 3.7 3 4.5 5.3q0.1 0.3 0.1 0.6c0 0.1 0 0.2 0 0.4q-3.4 0-6.7-0.1c-0.2 0-0.4-0.1-0.5-0.2-1-2-2.8-2.5-4.8-2.6-1.2-0.1-2.4 0-3.5 0.3-2.5 0.8-3.7 2.7-3.6 5.3 0.1 2.2 1.6 4 4 4.6 2.5 0.6 4.9 0.3 6.9-1.4q0.1-0.1 0.2-0.2c0.1-0.1 0.1-0.2 0.2-0.4z"/>
	<path id="Layer" fill-rule="evenodd" class="s0" d="m112.2 237.4c1.9 2.2 3.8 4.3 5.8 6.6-0.4 0-0.7 0.1-0.9 0.1-2.1 0-4.2 0-6.3 0-0.4-0.1-1-0.3-1.2-0.6-1.6-1.7-3.2-3.5-4.8-5.2-0.2-0.3-0.7-0.6-1.2-0.6-1.1-0.1-2.2 0-3.4 0 0 2.1 0 4.2 0 6.3-2.2 0-4.4 0-6.6 0q0-0.5-0.1-0.9c0-5.9 0.1-11.9 0-17.8 0-0.9 0.3-1.1 1.1-1.1 5.2 0.1 10.4 0 15.6 0.1 1.5 0.1 3.1 0.6 4.4 1.3 2.3 1.1 3.4 3.1 3.3 5.6-0.2 2.8-1.7 4.7-4.3 5.7-0.4 0.2-0.9 0.3-1.4 0.5zm-12-4.5c3.3 0 6.4 0.1 9.5 0 1.1 0 1.5-0.7 1.6-1.7 0.1-1.6-0.6-2.3-2.2-2.3-2.9-0.1-5.7 0-8.6 0-0.1 0-0.2 0.1-0.3 0.1 0 1.3 0 2.6 0 3.9z"/>
	<path id="Layer" class="s0" d="m203.2 236.4c-4.1 0-8.3 0-12.5 0 0 1 0 1.9 0 2.9q2.7 0 5.5 0c2.8 0 5.6 0 8.4-0.1 0.9 0 1.2 0.3 1.1 1.1 0 1.2 0 2.5 0 3.7-7.4 0-14.6 0-22 0 0-6.5 0-13.1 0-19.7 7.3 0 14.6 0 22 0 0 1.5 0.1 2.9 0 4.4 0 0.1-0.6 0.4-0.9 0.4q-6.3 0.1-12.6 0c-0.5 0-1 0-1.5 0 0 0.9 0 1.6 0 2.5 4.1 0 8.3 0 12.5 0 0 1.6 0 3.1 0 4.8z"/>
	<path id="Layer" fill-rule="evenodd" class="s0" d="m154.7 244c0-6.6 0-13.1 0-19.7q0.3 0 0.6 0c3.8 0 7.7-0.1 11.5 0 3.8 0.1 7.2 1.4 9.6 4.5 3.2 4.4 1.9 10.5-2.8 13.3-1.9 1.1-4 1.9-6.2 1.9-4.2 0.1-8.4 0-12.7 0zm6.9-5.4c2 0 3.9 0.1 5.7-0.1 1.7-0.1 3.2-1 3.8-2.7 0.9-2.7-0.8-5.5-3.9-6-1.8-0.2-3.7-0.2-5.6-0.2 0 3.1 0 6 0 9z"/>
	<path id="Layer" class="s0" d="m18.9 224.3c0.5 0 0.8 0 1.1 0q2.9-0.1 5.9 0c0 0.1 0.1 0.2 0.1 0.3 0 3.6 0.1 7.3-0.1 10.9-0.2 3.3-2.2 5.7-5.2 7.4-5.2 3-13.1 2.1-17.3-2.1-1.7-1.7-2.6-3.7-2.6-6-0.1-3.5 0-6.9 0-10.5 2.3 0 4.6 0 7.1 0q0 0.5 0 1 0 4.2 0 8.4c0 3.9 2.7 6 6.8 5.4 2.9-0.5 4.2-2.1 4.2-4.9q0.1-4.3 0-8.7c0-0.3 0-0.7 0-1.2z"/>
	<path id="Layer" fill-rule="evenodd" class="s0" d="m38.9 237.7c0 2.1 0 4.2 0 6.3-2.3 0-4.6 0-6.9 0 0-6.6 0-13.1 0-19.7 0.2 0 0.4 0 0.6 0 5.2 0 10.5-0.1 15.8 0 2.5 0 4.9 0.9 6.5 2.9 3.2 3.9 0.7 9.4-4.5 10.3-1.8 0.2-3.5 0.2-5.3 0.2-2 0-4.1 0-6.2 0zm0.1-8.7c0 1.3 0 2.6 0 3.9 2.9 0 5.8 0 8.7 0q0.4 0 0.8-0.1c1.1-0.2 1.5-0.8 1.5-1.8 0-1.2-0.5-1.9-1.6-1.9-3.1-0.1-6.2-0.1-9.4-0.1z"/>
	<path id="Layer" fill-rule="evenodd" class="s0" d="m121 244.1c1.4-2.6 2.7-5 4.1-7.4q3.3-5.8 6.6-11.7c0.3-0.5 0.6-0.8 1.2-0.8 1.9 0.1 3.7 0 5.6 0.1 0.3 0 0.8 0.2 1 0.5q5.3 9.4 10.6 18.9c0 0.1 0 0.2 0.1 0.4-1.8 0-3.6-0.1-5.4 0-1.1 0.1-1.9-0.2-2.2-1.3-0.6-1.8-1.8-2.3-3.7-2.1-2.7 0.2-5.5 0-8.2 0-0.7 0-1 0.2-1.2 0.7-0.7 2.2-2.2 3.1-4.7 2.7-1.1-0.2-2.4 0-3.8 0zm11.5-8c2.1 0 4.1 0 6.3 0-1.1-1.9-2.1-3.7-3.1-5.6-0.2 0.3-0.3 0.4-0.4 0.6-0.9 1.6-1.9 3.2-2.8 5z"/>
	<path id="Layer" fill-rule="evenodd" class="s0" d="m76.2 251.9c1 0 1.9-0.1 2.8 0 0.2 0 0.5 0.5 0.5 0.8 0 1.7 0 3.4 0 5.2 0.4-0.1 0.6-0.3 0.8-0.4 2.2-1.3 4.5-1.7 6.9-1.3 3.7 0.5 6.2 3.9 5.7 7.5-0.4 3.6-2.6 6.2-5.7 6.5-2.7 0.2-5.4 0-7.8-1.6-0.1 0.1-0.2 0.1-0.2 0.1-0.2 0.5-0.3 1.2-0.5 1.2-0.7 0.2-1.5 0.1-2.2 0-0.2 0-0.3-0.6-0.3-0.9q0-7.7 0-15.4c0-0.6 0-1.1 0-1.7zm3.3 11.3c0 2.7 2.2 4.9 4.9 4.9 2.8 0 5.1-2.3 5.1-5.1-0.1-2.6-2.3-4.6-5.1-4.6-2.9 0-4.9 2-4.9 4.8z"/>
	<path id="Layer" fill-rule="evenodd" class="s0" d="m167.3 264.8c1 0 2 0 3.1 0 0 1.4-0.7 2.5-1.7 3.4-3.5 3.2-10.1 3.2-13.7 0-3.5-3.1-3-8.4 1.1-10.8 3.5-2 7.2-2.1 10.9-0.2 2.3 1.2 3.3 3.2 3.5 5.7 0 0.7-0.5 0.7-1 0.7q-4.8 0-9.6 0-1.9 0-3.7 0c-0.3 1.8 1.4 3.9 3.7 4.4 3 0.8 6.6-0.3 7.4-3.2zm-0.5-3.3c-0.5-2.1-2.3-3.3-5-3.3-2.6 0-4.7 1.3-5.2 3.3 3.4 0 6.8 0 10.2 0z"/>
	<path id="Layer" class="s0" d="m111.7 265.7c1.1 0 2.1 0 3.2 0 0.2 1.4 1.3 1.9 2.6 2.2 1.9 0.5 3.9 0.4 5.9 0 0.4 0 0.9-0.2 1.1-0.5 0.3-0.4 0.6-1 0.5-1.4 0-0.4-0.5-0.9-0.9-1-1.3-0.3-2.7-0.3-4-0.4-2-0.3-4-0.5-5.9-1-2.1-0.6-3-2.4-2.4-4.5 0.3-1 1-1.8 2-2.1 3.9-1.3 7.8-1.4 11.7 0 1.9 0.7 2.8 2 2.7 4-0.9 0-1.8 0-2.8 0-0.2 0-0.4-0.3-0.5-0.6-0.2-0.8-0.7-1.2-1.5-1.4-2.3-0.9-4.7-0.8-7.1-0.2-0.7 0.1-1.3 0.5-1.3 1.3-0.1 0.8 0.3 1.4 1.1 1.6q1.6 0.4 3.3 0.5c1.7 0.2 3.5 0.1 5.3 0.3 1.9 0.1 3.2 1.2 3.5 2.7 0.4 1.9-0.3 3.6-2.1 4.4-1.1 0.5-2.2 0.7-3.4 0.9-2.8 0.3-5.6 0.2-8.3-0.9-1.8-0.6-2.8-2.1-2.7-3.9z"/>
	<path id="Layer" class="s0" d="m188 261c-1 0-2 0-3.1 0-0.2-2-1.8-2.3-3.4-2.4-1.7-0.1-3.6 0-5.3 0.2-0.8 0-1.3 0.4-1.4 1.2-0.1 0.9 0.3 1.5 1.1 1.7q1.6 0.4 3.2 0.5c1.8 0.2 3.6 0.1 5.5 0.3 1.9 0.1 3.2 1.2 3.4 2.6 0.4 2-0.2 3.6-2 4.5-1.1 0.5-2.3 0.7-3.5 0.9-2.8 0.3-5.7 0.2-8.4-0.9q-2.6-1-2.6-3.9 1.6 0 3.2 0c0.2 1.3 1.2 1.9 2.4 2.2 2.1 0.5 4.2 0.5 6.2 0 0.4-0.1 0.9-0.3 1.2-0.5 0.8-0.8 0.6-2.2-0.5-2.4-1.2-0.3-2.5-0.4-3.7-0.4-2.1 0-4.3-0.2-6.3-1-2.1-0.8-2.9-2.4-2.4-4.4 0.3-1.1 1-1.9 2.1-2.2 4-1.3 8.1-1.4 12.1 0.1 1.6 0.7 2.4 2.1 2.2 3.9z"/>
	<path id="Layer" class="s0" d="m205.7 261c-0.9 0-1.8 0-2.7 0-0.2 0-0.5-0.3-0.5-0.5-0.3-0.9-0.9-1.3-1.7-1.6-2.3-0.8-4.7-0.7-7.1-0.1-0.6 0.1-1.1 0.5-1.2 1.2-0.1 0.8 0.3 1.5 1 1.7q1.6 0.4 3.2 0.5c1.9 0.2 3.7 0.1 5.6 0.3 1.9 0.1 3.1 1.2 3.4 2.8 0.4 1.7-0.3 3.4-2 4.2-1 0.5-2.3 0.8-3.4 1-2.8 0.3-5.6 0.2-8.3-0.8-1.4-0.5-2.4-1.5-2.8-3 0-0.3 0-0.7 0-1.1 1 0 1.9 0 2.8 0.1 0.1 0 0.4 0.1 0.4 0.2 0.4 1.5 1.7 1.8 2.9 2.1 2 0.4 3.9 0.4 5.8-0.1 0.6-0.2 1.2-0.7 1.4-1.3 0.4-0.7 0-1.4-0.9-1.6-1-0.2-2-0.4-3-0.4-2.3 0-4.6-0.1-6.8-0.9-1.8-0.7-2.7-1.8-2.6-3.6 0-1.7 0.9-2.8 2.8-3.3 3.6-1 7.2-1.1 10.7 0.1 2.1 0.7 3.2 2.2 3 4.1z"/>
	<path id="Layer" class="s0" d="m19.5 256.6c-1 2-1.9 3.9-2.8 5.7q-2.6 5.2-5.2 10.4c-0.4 1-1.2 1.6-2.3 1.8-1.2 0.2-2.4 0.3-3.7 0.5 0-1.2 0-2.1 0-3.2q0.5 0 1-0.1c1.1-0.2 1.3-0.5 0.8-1.4q-2.6-5-5.3-9.9c-0.6-1.2-1.3-2.5-2-3.8 1.2 0 2.3-0.1 3.3 0 0.3 0.1 0.6 0.4 0.7 0.7q2.8 5.6 5.6 11.2c0.1 0.2 0.2 0.4 0.4 0.7 0.2-0.4 0.4-0.6 0.5-0.9 1.6-3.6 3.3-7.2 4.9-10.9 0.3-0.6 0.6-0.9 1.4-0.8 0.8 0 1.7 0 2.7 0z"/>
	<path id="Layer" fill-rule="evenodd" class="s0" d="m28 256c2.2 0 4.2 0.6 5.9 1.9 3.8 2.8 3.7 8.4-0.3 11.1-3.7 2.4-9.3 2.1-12.6-0.9-3.2-2.9-3-7.3 0.5-10 1.9-1.4 4.1-2.1 6.5-2.1zm5.4 7.2c0-1.9-0.7-3.5-2.8-4.3-2.1-0.9-4.2-0.8-6.1 0.3-1.9 0.9-2.5 2.5-2.4 4.5 0.1 1.8 1 3.2 2.7 3.9 1.4 0.6 2.9 0.8 4.4 0.5 2.8-0.5 4.2-2 4.2-4.9z"/>
	<path id="Layer" class="s0" d="m110.2 270c-1.1 0-2.1 0-3.2 0 0-0.5 0-1 0-1.7-1.6 1.4-3.3 2-5.2 2.1-4 0.3-6.2-1.1-6.8-5-0.4-2.9-0.3-5.8-0.4-8.7 1.2 0 2.2 0 3.4 0q0 0.6 0 1.2c0.1 2.2 0 4.4 0.3 6.6 0.4 3.1 3.4 4.4 6.4 3 1.5-0.7 1.9-2.1 2-3.5 0.2-2 0.2-4 0.2-6 0-0.4 0-0.9 0-1.3 1.2 0 2.2 0 3.3 0 0 4.4 0 8.8 0 13.3z"/>
	<path id="Layer" class="s0" d="m38.5 256.6c1.1 0 2.1 0 3.3 0 0 1.1-0.1 2.1 0 3.1 0 1.8 0 3.6 0.4 5.2 0.6 2.9 4 4.1 6.6 2.5 1.5-1.1 1.7-2.8 1.8-4.4 0.1-1.8 0.1-3.7 0.1-5.5 0-0.7 0.1-1 0.8-0.9 0.8 0 1.6 0 2.4 0 0 4.5 0 8.9 0 13.4q-1.5 0-3.2 0c0-0.5 0-1-0.1-1.6-2 1.8-4.3 2.2-6.8 2.1-2.3-0.2-3.9-1.4-4.6-3.5-0.4-1.2-0.6-2.5-0.7-3.8-0.1-2.2 0-4.3 0-6.6z"/>
	<path id="Layer" class="s0" d="m147.8 270c0-1.7 0-3.3-0.1-4.9 0-1.3-0.1-2.6-0.5-3.8-0.5-2-1.6-2.6-3.9-2.6-2.3 0-3.4 0.7-3.9 2.6-0.4 1.2-0.5 2.4-0.6 3.6-0.1 1.6 0 3.2 0 4.8 0 0.1 0 0.1-0.1 0.3q-1.4 0-3.1 0c0-4.4 0-8.8 0-13.3q1.5 0 3.1 0c0.1 0.4 0.1 0.9 0.1 1.5 1.5-1.2 3.2-1.8 5-2 3.9-0.3 6.3 1.1 6.9 4.9 0.4 2.9 0.3 5.9 0.5 8.9-1.3 0-2.3 0-3.4 0z"/>
	<path id="Layer" class="s0" d="m56.2 256.6c0.7 0 1.4-0.1 2.1 0 0.3 0.1 0.6 0.4 0.7 0.6 0.2 0.4 0.2 0.8 0.4 1.3 1.7-1.4 3.6-1.9 5.9-2.1 0 0.9 0 1.8-0.1 2.6 0 0.2-0.4 0.5-0.6 0.5-0.9 0-1.7 0-2.6 0-1.3 0.1-2 0.6-2.3 1.8q-0.2 0.9-0.2 1.8c-0.1 2.3 0 4.5 0 6.9-1.1 0-2.2 0-3.3 0 0-4.4 0-8.8 0-13.4z"/>
	<path id="Layer" class="s0" d="m133.3 270c-1.1 0-2.1 0-3.1 0 0-4.9 0-9.8 0-14.8q1.4 0 3.1 0c0 4.9 0 9.8 0 14.8z"/>
	<path id="Layer" class="s0" d="m133.3 254.4c-1.1 0-2.1 0-3.2 0 0-0.7-0.2-1.5 0-2.2 0.5-1 1.6-0.3 2.4-0.4 0.3 0 0.8 0.3 0.8 0.5 0.1 0.7 0 1.4 0 2.1z"/>
</svg>