<svg width="36" height="48" viewBox="0 0 36 48" fill="none" xmlns="http://www.w3.org/2000/svg">
<path d="M2.50842 2.81785C4.19933 2.81785 5.87047 2.81785 7.5641 2.81785C7.5641 2.89861 7.5641 2.97345 7.5641 3.04764C7.56547 10.9254 7.56615 18.8032 7.56751 26.681C7.56751 27.2193 7.61656 27.7511 7.80595 28.2626C8.08119 29.0077 8.6153 29.4712 9.42328 29.6301C9.94717 29.7332 10.4738 29.7325 10.9936 29.6177C11.8963 29.4187 12.4229 28.8397 12.6232 27.996C12.722 27.5791 12.7717 27.1419 12.7724 26.7145C12.7833 18.8367 12.7833 10.9589 12.786 3.08112C12.786 2.99512 12.786 2.90911 12.786 2.81916C14.3788 2.81916 15.9471 2.81916 17.5453 2.81916C16.2278 5.00215 14.9218 7.16609 13.5988 9.35761C14.7569 9.35761 15.8817 9.35761 17.033 9.35761C17.033 9.43377 17.033 9.49154 17.033 9.54932C17.0337 16.2782 17.0351 23.0076 17.0337 29.7365C17.0337 29.8218 17.0187 29.9111 16.9881 29.9912C16.1453 32.2169 14.4919 33.5339 12.1027 33.9961C10.5419 34.2981 8.97841 34.2758 7.43534 33.8727C5.27096 33.3061 3.82667 31.9825 3.07183 29.9531C2.72234 29.0143 2.53227 28.0393 2.52614 27.046C2.50502 23.3477 2.50706 19.6501 2.50502 15.9519C2.50297 11.6575 2.50706 7.36305 2.50774 3.06799C2.50842 2.98789 2.50842 2.90714 2.50842 2.81785Z" fill="#FFE600"/>
<path d="M21.9729 9.36811C23.0902 9.36811 24.1836 9.36811 25.3077 9.36811C25.2702 9.29983 25.2484 9.25322 25.2205 9.21054C23.8661 7.14574 22.5111 5.08093 21.1581 3.01481C21.1043 2.93209 21.0579 2.89007 20.9387 2.89073C19.8548 2.89926 18.7709 2.89598 17.6877 2.89532C17.6611 2.89532 17.6339 2.88876 17.576 2.88154C18.1544 1.9184 18.7226 0.971673 19.3064 0C19.3568 0.0794409 19.3957 0.136559 19.4311 0.195648C19.925 1.01894 20.4203 1.84158 20.9115 2.66619C20.9721 2.76796 21.03 2.81588 21.1697 2.81523C23.689 2.808 26.2083 2.80078 28.7276 2.81326C29.9805 2.81917 31.2 3.01875 32.3452 3.53873C33.8222 4.20971 34.8052 5.31335 35.3795 6.77217C35.7971 7.83247 35.9695 8.93939 35.9845 10.0654C36.0056 11.6627 36.0043 13.2607 35.9859 14.8574C35.9729 15.9663 35.8094 17.0575 35.4102 18.1053C34.6349 20.1425 33.1245 21.3762 30.9554 21.8863C30.1917 22.0662 29.415 22.1456 28.6302 22.1489C27.8529 22.1522 27.0756 22.1496 26.2982 22.1496C26.2363 22.1496 26.1749 22.1496 26.0843 22.1496C26.0843 22.2329 26.0843 22.3071 26.0843 22.3807C26.085 26.1006 26.085 29.8212 26.0857 33.5411C26.0857 33.788 26.0857 33.788 25.8295 33.788C24.621 33.788 23.4124 33.788 22.2038 33.788C21.9688 33.788 21.9688 33.7873 21.9688 33.5687C21.9708 25.576 21.9729 17.5827 21.9749 9.59002C21.9729 9.52174 21.9729 9.45215 21.9729 9.36811ZM26.0966 7.24356C26.0966 10.7462 26.0966 14.2252 26.0966 17.7127C26.4243 17.7127 26.7356 17.716 27.047 17.712C27.7044 17.7035 28.3632 17.7179 29.0179 17.672C29.6467 17.628 30.1692 17.3549 30.501 16.8113C30.7967 16.3267 30.9057 15.7884 30.9104 15.2389C30.9261 13.4892 30.9281 11.7395 30.92 9.98985C30.9186 9.63729 30.8764 9.27948 30.8048 8.93283C30.6693 8.27104 30.3572 7.70511 29.6637 7.4484C29.3626 7.33679 29.0294 7.27376 28.7072 7.25604C28.1533 7.22452 27.5961 7.24553 27.0401 7.24488C26.7302 7.24291 26.4188 7.24356 26.0966 7.24356Z" fill="#FFE600"/>
<path d="M14.0055 41.3985C13.6982 41.3985 13.4155 41.3985 13.1178 41.3985C13.1178 41.1904 13.1178 40.9921 13.1178 40.7742C13.1689 40.7709 13.2234 40.7637 13.2779 40.7637C13.919 40.763 14.56 40.7676 15.2004 40.7604C15.3503 40.7584 15.3953 40.8017 15.3932 40.9462C15.3857 41.4379 15.3932 41.9303 15.3939 42.4227C15.3939 42.4766 15.3885 42.5297 15.3844 42.6039C15.1446 42.6039 14.9122 42.6197 14.6854 42.5941C14.6213 42.5869 14.5716 42.4562 14.5246 42.3945C14.2473 42.4785 13.9653 42.598 13.6703 42.6479C12.846 42.7891 12.0618 42.6814 11.3812 42.1752C10.4166 41.4576 10.4574 40.1879 11.4596 39.5176C12.0502 39.123 12.7131 39.0055 13.4175 39.0645C13.8168 39.098 14.2003 39.1873 14.5498 39.383C14.9313 39.5963 15.2113 39.8931 15.338 40.3093C15.3476 40.3409 15.3571 40.3724 15.3626 40.4039C15.3653 40.419 15.3585 40.4361 15.3537 40.4702C14.9647 40.4702 14.5743 40.4708 14.1847 40.4682C14.1567 40.4682 14.1152 40.4459 14.1036 40.4229C13.9346 40.0776 13.6056 39.9889 13.2602 39.9627C13.0619 39.9476 12.8487 39.9699 12.66 40.0277C12.224 40.161 12.0087 40.4958 12.0278 40.9468C12.0441 41.3335 12.3098 41.6487 12.7288 41.7537C13.1648 41.8627 13.5715 41.8043 13.9258 41.5147C13.9428 41.501 13.9564 41.4832 13.9701 41.4655C13.9796 41.453 13.985 41.4373 14.0055 41.3985Z" fill="#FFE600"/>
<path d="M19.6014 41.4425C19.9441 41.8279 20.2711 42.1962 20.6172 42.5856C20.547 42.5941 20.5061 42.6033 20.4653 42.6033C20.0967 42.6046 19.7281 42.6092 19.3602 42.5993C19.2873 42.5974 19.1954 42.5573 19.147 42.5048C18.867 42.2041 18.6006 41.8916 18.3206 41.5902C18.2723 41.5377 18.1844 41.497 18.1115 41.4918C17.9207 41.478 17.7279 41.4872 17.5126 41.4872C17.5126 41.8594 17.5126 42.2218 17.5126 42.5934C17.1182 42.5934 16.7469 42.5934 16.3572 42.5934C16.3538 42.5376 16.347 42.4851 16.347 42.4326C16.3463 41.3939 16.3497 40.3553 16.3436 39.3167C16.3429 39.1709 16.3872 39.1328 16.5357 39.1341C17.4425 39.1427 18.3499 39.1263 19.256 39.1545C19.5162 39.1624 19.7922 39.2549 20.0265 39.3718C20.4264 39.5714 20.6158 39.9213 20.5954 40.3592C20.5729 40.8457 20.312 41.1753 19.8467 41.3572C19.7744 41.3861 19.6995 41.409 19.6014 41.4425ZM17.516 40.6547C18.0808 40.6547 18.6279 40.6619 19.1749 40.6507C19.3568 40.6468 19.4393 40.5352 19.4474 40.356C19.4604 40.0809 19.3521 39.9528 19.068 39.9482C18.5645 39.941 18.0617 39.9476 17.5583 39.9496C17.544 39.9496 17.5297 39.9627 17.516 39.9693C17.516 40.1958 17.516 40.4183 17.516 40.6547Z" fill="#FFE600"/>
<path d="M35.5158 41.2593C34.7855 41.2593 34.0606 41.2593 33.3208 41.2593C33.3208 41.43 33.3208 41.5896 33.3208 41.7701C33.6396 41.7701 33.9605 41.7721 34.282 41.7695C34.7753 41.7662 35.2685 41.7649 35.7617 41.7511C35.9157 41.7465 35.9579 41.7984 35.9511 41.9389C35.9402 42.1555 35.9484 42.3735 35.9484 42.5967C34.6554 42.5967 33.3875 42.5967 32.1074 42.5967C32.1074 41.4484 32.1074 40.308 32.1074 39.1552C33.3807 39.1552 34.6533 39.1552 35.9525 39.1552C35.9525 39.4105 35.9586 39.6607 35.945 39.9108C35.9436 39.9417 35.8394 39.9916 35.7828 39.9922C35.0512 39.9975 34.3195 39.9962 33.5878 39.9962C33.5033 39.9962 33.4189 39.9962 33.3201 39.9962C33.3201 40.1426 33.3201 40.2759 33.3201 40.4229C34.0456 40.4229 34.7698 40.4229 35.5165 40.4229C35.5158 40.702 35.5158 40.9685 35.5158 41.2593Z" fill="#FFE600"/>
<path d="M27.0361 42.5967C27.0361 41.4432 27.0361 40.3034 27.0361 39.1538C27.0756 39.1492 27.1083 39.1427 27.1403 39.1427C27.8093 39.1433 28.479 39.1269 29.1466 39.1512C29.8184 39.1755 30.4165 39.3922 30.8273 39.9397C31.3948 40.6967 31.1625 41.7609 30.3341 42.2586C30.005 42.4562 29.6453 42.5816 29.2624 42.5915C28.5267 42.6098 27.7902 42.5967 27.0361 42.5967ZM28.244 41.6421C28.5887 41.6421 28.9184 41.6664 29.242 41.6349C29.5404 41.6053 29.7904 41.4616 29.8933 41.1596C30.0554 40.6842 29.7577 40.205 29.212 40.1176C28.898 40.0677 28.573 40.0828 28.244 40.0677C28.244 40.6153 28.244 41.1313 28.244 41.6421Z" fill="#FFE600"/>
<path d="M3.31096 39.1499C3.38726 39.1466 3.43699 39.1427 3.4874 39.142C3.83213 39.1414 4.17685 39.142 4.51952 39.142C4.53179 39.1702 4.54337 39.1847 4.54337 39.1991C4.54269 39.8333 4.56857 40.4695 4.53111 41.1018C4.49636 41.6861 4.13393 42.0984 3.62502 42.3919C2.7019 42.9237 1.3312 42.7628 0.600878 42.036C0.305208 41.7419 0.137616 41.3893 0.133529 40.9764C0.128079 40.375 0.132166 39.7736 0.132166 39.1571C0.543651 39.1571 0.948324 39.1571 1.37207 39.1571C1.3748 39.211 1.38093 39.2681 1.38093 39.3258C1.38161 39.8123 1.38161 40.2995 1.38161 40.786C1.38161 41.4648 1.85918 41.8469 2.56088 41.7301C3.06774 41.646 3.30823 41.3729 3.31096 40.8746C3.313 40.3717 3.31164 39.8681 3.31164 39.3652C3.31096 39.3009 3.31096 39.2359 3.31096 39.1499Z" fill="#FFE600"/>
<path d="M6.79904 41.4885C6.79904 41.862 6.79904 42.2212 6.79904 42.5921C6.38892 42.5921 5.99583 42.5921 5.59252 42.5921C5.59252 41.4458 5.59252 40.3054 5.59252 39.1551C5.62931 39.1506 5.66133 39.1427 5.69335 39.1427C6.61237 39.1433 7.5314 39.1354 8.45043 39.1499C8.90211 39.1571 9.3136 39.3002 9.60177 39.6581C10.1488 40.3363 9.71963 41.3027 8.79924 41.4471C8.50016 41.4944 8.18951 41.4813 7.8843 41.4865C7.52868 41.4931 7.17238 41.4885 6.79904 41.4885ZM6.80722 39.9771C6.80722 40.2023 6.80722 40.4223 6.80722 40.6553C7.32566 40.6553 7.8332 40.656 8.34143 40.6547C8.38639 40.6547 8.43204 40.6488 8.47564 40.6396C8.66299 40.6002 8.74065 40.5017 8.73724 40.3139C8.73316 40.1176 8.64527 39.9857 8.46133 39.9817C7.91428 39.9692 7.36722 39.9771 6.80722 39.9771Z" fill="#FFE600"/>
<path d="M21.1383 42.6052C21.3918 42.1535 21.6255 41.7366 21.8598 41.3197C22.2434 40.6383 22.629 39.9581 23.0077 39.274C23.0595 39.1801 23.1127 39.1368 23.2278 39.1394C23.5507 39.1466 23.8743 39.1374 24.1972 39.146C24.2572 39.1479 24.343 39.1893 24.3703 39.2372C24.9923 40.3343 25.6081 41.4346 26.2247 42.535C26.2322 42.5481 26.2335 42.5652 26.2451 42.6052C25.927 42.6052 25.6177 42.5908 25.3104 42.6105C25.1047 42.6236 24.9732 42.5691 24.9139 42.3781C24.8179 42.0689 24.6087 41.9835 24.279 42.0065C23.7994 42.0393 23.3157 42.0183 22.8333 42.0124C22.7264 42.0111 22.6582 42.0406 22.6269 42.1365C22.5016 42.5245 22.2447 42.6827 21.8176 42.6118C21.6091 42.5764 21.3891 42.6052 21.1383 42.6052ZM23.1494 41.2075C23.531 41.2075 23.8791 41.2075 24.2565 41.2075C24.0712 40.8766 23.8961 40.5641 23.7122 40.2358C23.6795 40.2785 23.6563 40.3021 23.6413 40.329C23.4805 40.6146 23.3211 40.9015 23.1494 41.2075Z" fill="#FFE600"/>
<path d="M13.3133 43.9643C13.4925 43.9643 13.6505 43.9557 13.8059 43.9708C13.8393 43.9741 13.8876 44.0614 13.889 44.1107C13.8965 44.4055 13.8931 44.7002 13.8931 45.0233C13.9551 44.9891 13.9966 44.9675 14.0368 44.9438C14.4095 44.7206 14.8203 44.6517 15.2447 44.7114C15.8817 44.8014 16.315 45.3935 16.2373 46.0317C16.1617 46.6567 15.772 47.115 15.242 47.1616C14.7617 47.2036 14.2896 47.1662 13.8747 46.8891C13.8624 46.897 13.8488 46.901 13.8454 46.9088C13.8134 46.9804 13.7963 47.1045 13.7507 47.1156C13.6281 47.1439 13.4918 47.1327 13.3644 47.1143C13.3392 47.111 13.3154 47.0053 13.3154 46.9469C13.3126 46.0507 13.3133 45.1546 13.3133 44.2577C13.3133 44.1652 13.3133 44.0739 13.3133 43.9643ZM13.8938 45.9444C13.8958 46.4171 14.2712 46.7907 14.744 46.7893C15.2467 46.788 15.6378 46.3974 15.633 45.9017C15.6289 45.45 15.2386 45.0948 14.7453 45.0948C14.248 45.0942 13.8917 45.45 13.8938 45.9444Z" fill="#FFE600"/>
<path d="M29.2318 46.2195C29.4096 46.2195 29.5881 46.2195 29.7816 46.2195C29.7775 46.4722 29.6549 46.658 29.4825 46.813C28.8653 47.3671 27.7105 47.3658 27.0906 46.815C26.4829 46.2753 26.5612 45.3469 27.2738 44.9327C27.8917 44.5735 28.5458 44.5604 29.1834 44.8946C29.5786 45.1021 29.7543 45.4546 29.7891 45.88C29.8 46.0114 29.7141 46.0035 29.6262 46.0035C29.0649 46.0035 28.5035 46.0035 27.9415 46.0035C27.7269 46.0035 27.5123 46.0035 27.3018 46.0035C27.2459 46.3317 27.5504 46.6922 27.9449 46.7867C28.4667 46.9115 29.0942 46.7322 29.2318 46.2195ZM29.1555 45.6378C29.0581 45.2708 28.7433 45.0705 28.2787 45.0705C27.8161 45.0705 27.4578 45.2898 27.3624 45.6378C27.9578 45.6378 28.5512 45.6378 29.1555 45.6378Z" fill="#FFE600"/>
<path d="M19.5265 46.3705C19.7125 46.3705 19.8869 46.3705 20.0722 46.3705C20.1117 46.6285 20.3065 46.7125 20.532 46.7651C20.8747 46.8445 21.218 46.8386 21.56 46.767C21.6302 46.7526 21.7181 46.7296 21.7556 46.6804C21.8101 46.6081 21.8591 46.5057 21.8489 46.4223C21.8414 46.358 21.7488 46.2635 21.6806 46.2517C21.4544 46.2109 21.2208 46.209 20.9919 46.1781C20.6458 46.1308 20.2929 46.102 19.9597 46.01C19.5857 45.9063 19.4386 45.5859 19.536 45.2307C19.5871 45.0462 19.707 44.9182 19.8882 44.8598C20.5695 44.6392 21.2555 44.6136 21.9368 44.8572C22.2713 44.9767 22.4218 45.2104 22.4048 45.557C22.244 45.557 22.0812 45.5623 21.9191 45.5524C21.8871 45.5505 21.8407 45.4953 21.8319 45.4586C21.7992 45.3181 21.7004 45.2439 21.573 45.1999C21.1588 45.0587 20.7384 45.0659 20.3174 45.1657C20.1955 45.1946 20.0994 45.257 20.0912 45.3968C20.0824 45.5439 20.1566 45.6496 20.2929 45.6844C20.4775 45.731 20.6689 45.7606 20.859 45.7737C21.1697 45.7954 21.4824 45.7842 21.7924 45.8111C22.1309 45.8407 22.3558 46.0304 22.4062 46.2897C22.4716 46.6219 22.3449 46.9148 22.0308 47.0579C21.8509 47.1399 21.6459 47.1879 21.447 47.2115C20.9524 47.2693 20.4618 47.2424 19.9904 47.0651C19.6702 46.945 19.4944 46.6863 19.5265 46.3705Z" fill="#FFE600"/>
<path d="M32.8541 45.5557C32.6729 45.5557 32.5039 45.5557 32.3159 45.5557C32.2805 45.2117 31.9977 45.15 31.7266 45.1323C31.4146 45.1119 31.0971 45.1415 30.7837 45.1657C30.6604 45.1756 30.5623 45.2504 30.548 45.387C30.5323 45.5341 30.6073 45.6404 30.7428 45.6778C30.9206 45.7271 31.106 45.7599 31.2906 45.773C31.6121 45.7954 31.9364 45.7842 32.258 45.8118C32.5877 45.84 32.8125 46.0297 32.8623 46.2805C32.9297 46.6219 32.8112 46.9088 32.4978 47.0526C32.3132 47.1373 32.1026 47.1879 31.8983 47.2115C31.3982 47.2693 30.9023 47.2417 30.4274 47.0553C30.1277 46.9377 29.9744 46.7106 29.9764 46.3764C30.159 46.3764 30.3416 46.3764 30.5337 46.3764C30.565 46.6108 30.7415 46.7007 30.9472 46.7546C31.3103 46.8484 31.6762 46.8419 32.0407 46.7618C32.1095 46.7467 32.1817 46.7132 32.2341 46.6679C32.3867 46.5372 32.3445 46.2976 32.149 46.2523C31.9426 46.2044 31.7245 46.1867 31.5113 46.1827C31.1346 46.1762 30.764 46.1473 30.4104 46.014C30.0479 45.8768 29.8981 45.5925 29.9914 45.2406C30.0418 45.0509 30.1638 44.9176 30.3525 44.8578C31.0576 44.634 31.7641 44.6077 32.4624 44.8841C32.743 44.9957 32.8834 45.2458 32.8541 45.5557Z" fill="#FFE600"/>
<path d="M35.9436 45.5577C35.7883 45.5577 35.6302 45.5629 35.4736 45.5538C35.4395 45.5518 35.3891 45.5032 35.3802 45.4684C35.3421 45.3174 35.2385 45.2406 35.0955 45.1927C34.6847 45.0541 34.2704 45.0745 33.8555 45.1671C33.7377 45.1933 33.6512 45.2596 33.6369 45.3876C33.6219 45.5262 33.6866 45.6365 33.814 45.6732C33.9966 45.7258 34.1873 45.7606 34.3774 45.7743C34.699 45.798 35.0232 45.7868 35.3448 45.8137C35.6827 45.8426 35.8953 46.0278 35.9511 46.2989C36.0152 46.6121 35.8966 46.9042 35.5982 47.0461C35.4156 47.1334 35.2045 47.1839 35.0008 47.2095C34.5123 47.2706 34.0279 47.2443 33.5599 47.0743C33.303 46.9804 33.1273 46.8182 33.0721 46.5523C33.0605 46.4959 33.0632 46.4368 33.0585 46.3679C33.2329 46.3679 33.3902 46.3659 33.5476 46.3698C33.5755 46.3705 33.6226 46.3928 33.6266 46.4118C33.6852 46.6804 33.9148 46.7303 34.1362 46.7782C34.4735 46.8511 34.8155 46.8445 35.1459 46.7539C35.2447 46.727 35.3496 46.6318 35.3959 46.5412C35.4599 46.4158 35.3816 46.2858 35.2331 46.2517C35.0641 46.2123 34.8877 46.1853 34.7139 46.184C34.3093 46.1814 33.91 46.1617 33.5251 46.0258C33.1995 45.9103 33.0503 45.7153 33.0557 45.4008C33.0612 45.1007 33.2131 44.9156 33.5537 44.8204C34.1785 44.6458 34.8059 44.6313 35.4272 44.8348C35.7985 44.955 35.9838 45.2196 35.9436 45.5577Z" fill="#FFE600"/>
<path d="M3.41178 44.7876C3.2367 45.1414 3.07933 45.4612 2.92059 45.7803C2.61947 46.3862 2.31563 46.9903 2.01791 47.5975C1.93343 47.7696 1.80263 47.8818 1.61324 47.9153C1.40477 47.9527 1.19222 47.9711 0.965355 48C0.965355 47.7984 0.965355 47.631 0.965355 47.4465C1.0219 47.4387 1.08117 47.4295 1.14112 47.4209C1.31961 47.3953 1.36117 47.333 1.28078 47.18C0.974211 46.6009 0.662191 46.0251 0.352215 45.4474C0.238443 45.236 0.126034 45.0239 0 44.7876C0.214599 44.7876 0.396497 44.779 0.57567 44.7935C0.623359 44.7974 0.679904 44.8664 0.705792 44.9176C1.03348 45.5656 1.3564 46.2155 1.68068 46.8649C1.69772 46.8983 1.71543 46.9318 1.74677 46.9922C1.78287 46.9233 1.81149 46.8754 1.83397 46.8248C2.12146 46.1952 2.41168 45.5669 2.69373 44.9353C2.74346 44.8243 2.80341 44.7738 2.93285 44.7843C3.07864 44.7968 3.2258 44.7876 3.41178 44.7876Z" fill="#FFE600"/>
<path d="M4.89218 44.6891C5.27096 44.6891 5.61977 44.783 5.92225 45.0082C6.59534 45.5091 6.56877 46.4755 5.86979 46.9443C5.22123 47.3789 4.24361 47.312 3.6659 46.7926C3.11203 46.295 3.15018 45.5137 3.75514 45.0508C4.08624 44.7974 4.46911 44.6825 4.89218 44.6891ZM5.82892 45.9352C5.83982 45.6063 5.70765 45.3292 5.35476 45.1854C4.98892 45.0364 4.62103 45.0548 4.27427 45.2353C3.95612 45.4008 3.84235 45.6838 3.86006 46.0206C3.87709 46.3429 4.03582 46.5845 4.34239 46.7158C4.58424 46.8196 4.83904 46.853 5.10541 46.8025C5.59661 46.7099 5.82892 46.444 5.82892 45.9352Z" fill="#FFE600"/>
<path d="M19.2533 47.1288C19.0646 47.1288 18.8902 47.1288 18.696 47.1288C18.696 47.0428 18.696 46.9594 18.696 46.8379C18.418 47.0743 18.1265 47.1852 17.7947 47.2056C17.0875 47.2496 16.7081 47.0014 16.6059 46.3245C16.5309 45.8262 16.5486 45.3154 16.5248 44.7981C16.7449 44.7981 16.9233 44.7981 17.1298 44.7981C17.1298 44.871 17.1277 44.9399 17.1298 45.0088C17.142 45.3962 17.1209 45.7875 17.1754 46.1689C17.2524 46.7066 17.7811 46.9404 18.2913 46.6955C18.5536 46.5694 18.6251 46.3245 18.6497 46.081C18.6844 45.7336 18.6776 45.3831 18.6878 45.0338C18.6899 44.9583 18.6878 44.8828 18.6878 44.7974C18.8827 44.7974 19.0612 44.7974 19.2526 44.7974C19.2533 45.5721 19.2533 46.3403 19.2533 47.1288Z" fill="#FFE600"/>
<path d="M6.72819 44.7954C6.92167 44.7954 7.09607 44.7954 7.29637 44.7954C7.29637 44.9786 7.28887 45.1572 7.29773 45.3351C7.31272 45.6398 7.3025 45.951 7.36722 46.2457C7.47758 46.7467 8.07642 46.9555 8.51992 46.6653C8.79379 46.486 8.82785 46.1899 8.84625 45.907C8.86737 45.5859 8.85783 45.2622 8.85374 44.9399C8.85238 44.8309 8.87895 44.7777 9.0043 44.7863C9.13919 44.7955 9.27476 44.7882 9.42328 44.7882C9.42328 45.5715 9.42328 46.339 9.42328 47.1216C9.24138 47.1216 9.0588 47.1216 8.866 47.1216C8.85987 47.0382 8.85442 46.9587 8.84693 46.855C8.49812 47.1623 8.09072 47.2391 7.65539 47.2062C7.25345 47.176 6.9714 46.9706 6.84945 46.6035C6.77997 46.3935 6.74454 46.1663 6.73364 45.9457C6.71525 45.5643 6.72819 45.1828 6.72819 44.7954Z" fill="#FFE600"/>
<path d="M25.8207 47.1255C25.8207 46.8333 25.8309 46.5504 25.8173 46.2681C25.8064 46.0461 25.7907 45.819 25.7321 45.6056C25.6388 45.2662 25.4433 45.1539 25.0427 45.1559C24.6476 45.1579 24.4473 45.276 24.3532 45.6102C24.296 45.8131 24.2722 46.0278 24.2599 46.2392C24.2442 46.5169 24.2551 46.7966 24.2538 47.0749C24.2538 47.0854 24.2497 47.096 24.2442 47.1209C24.0705 47.1209 23.8927 47.1209 23.7026 47.1209C23.7026 46.3534 23.7026 45.5853 23.7026 44.802C23.875 44.802 24.0528 44.802 24.247 44.802C24.2517 44.8815 24.2572 44.9648 24.264 45.0745C24.5229 44.8499 24.8111 44.7469 25.136 44.718C25.8152 44.6576 26.2322 44.9176 26.333 45.5682C26.412 46.0763 26.3936 46.5983 26.4195 47.1248C26.1988 47.1255 26.021 47.1255 25.8207 47.1255Z" fill="#FFE600"/>
<path d="M9.82114 44.7876C9.95126 44.7876 10.0705 44.7771 10.1863 44.7928C10.2353 44.7994 10.2933 44.8526 10.3178 44.8992C10.3505 44.9596 10.3539 45.0344 10.3743 45.1224C10.6714 44.8841 11.0106 44.7889 11.4051 44.7587C11.4051 44.9163 11.4119 45.062 11.3996 45.2058C11.3969 45.2373 11.3308 45.2865 11.2913 45.2892C11.1394 45.2997 10.9854 45.2905 10.8328 45.2964C10.608 45.3049 10.4861 45.3955 10.4322 45.605C10.4057 45.7094 10.3948 45.8203 10.3934 45.9286C10.3893 46.3212 10.3914 46.7139 10.3914 47.1209C10.1979 47.1209 10.0153 47.1209 9.81978 47.1209C9.82114 46.3521 9.82114 45.5853 9.82114 44.7876Z" fill="#FFE600"/>
<path d="M23.2898 47.1281C23.1058 47.1281 22.9321 47.1281 22.7454 47.1281C22.7454 46.2674 22.7454 45.4119 22.7454 44.5433C22.9212 44.5433 23.099 44.5433 23.2898 44.5433C23.2898 45.3995 23.2898 46.2543 23.2898 47.1281Z" fill="#FFE600"/>
<path d="M23.302 44.4127C23.1024 44.4127 22.9335 44.4127 22.7346 44.4127C22.7346 44.2801 22.6937 44.1343 22.7434 44.028C22.8265 43.8507 23.0207 43.9754 23.1637 43.9525C23.2033 43.9459 23.2891 44.005 23.2946 44.0424C23.3129 44.1593 23.302 44.2794 23.302 44.4127Z" fill="#FFE600"/>
</svg>
